<svg width="712" height="713" viewBox="0 0 712 713" fill="none" xmlns="http://www.w3.org/2000/svg">
<path d="M379.557 95.6465H332.12V190.52H379.557V95.6465Z" fill="#FBFBFB"/>
<path d="M557.107 188.841L523.562 155.298L456.478 222.384L490.02 255.927L557.107 188.841Z" fill="#FBFBFB"/>
<path d="M616.763 380.275V332.837H521.889V380.275H616.763Z" fill="#FBFBFB"/>
<path d="M523.547 557.8L557.089 524.258L490.001 457.17L456.459 490.716L523.547 557.8Z" fill="#FBFBFB"/>
<path d="M379.557 522.586H332.12V617.461H379.557V522.586Z" fill="#FBFBFB"/>
<path d="M255.22 490.725L221.678 457.179L154.593 524.267L188.136 557.809L255.22 490.725Z" fill="#FBFBFB"/>
<path d="M189.845 380.275V332.837H94.9707V380.275H189.845Z" fill="#FBFBFB"/>
<path d="M221.665 255.918L255.209 222.375L188.122 155.289L154.579 188.832L221.665 255.918Z" fill="#FBFBFB"/>
<path fill-rule="evenodd" clip-rule="evenodd" d="M711.613 356.548C711.613 426.917 690.752 495.701 651.656 554.206C612.564 612.716 556.995 658.315 491.987 685.244C426.978 712.172 355.443 719.216 286.43 705.487C217.416 691.758 154.024 657.88 104.268 608.127C54.5115 558.365 20.62 494.969 6.89252 425.956C-6.8354 356.943 0.208617 285.408 27.1363 220.4C54.0644 155.39 99.6713 99.828 158.179 60.7351C216.686 21.6417 285.469 0.772949 355.838 0.772949C450.195 0.772949 540.685 38.2546 607.405 104.975C674.126 171.697 711.613 262.191 711.613 356.548ZM354.411 48.2097C293.427 48.2097 233.806 66.2943 183.101 100.175C132.395 134.056 92.8846 182.212 69.5471 238.553C46.2096 294.895 40.104 356.892 52.0017 416.702C63.8989 476.516 93.2605 531.456 136.382 574.581C179.504 617.701 234.447 647.069 294.257 658.967C354.071 670.862 416.071 664.759 472.415 641.42C528.754 618.081 576.907 578.561 610.789 527.855C644.667 477.149 662.753 417.536 662.753 356.548C662.753 274.774 630.266 196.346 572.44 138.521C514.614 80.6958 436.189 48.2097 354.411 48.2097Z" fill="#FBFBFB"/>
</svg>
